<svg xmlns="http://www.w3.org/2000/svg" width="36" height="41" viewBox="0 0 36 41">
  <defs>
    <style>
      .cls-1 {
        fill: #f63954;
        fill-rule: evenodd;
      }
    </style>
  </defs>
  <path id="account-manager" class="cls-1" d="M1571.45,4193H1540.1a2.343,2.343,0,0,1-2.33-2.35v-0.97a2.364,2.364,0,0,1,1.5-2.19c6.59-2.54,10.12-5.15,10.66-6.3v-1.31a10.815,10.815,0,0,1-2.76-4.78,1.241,1.241,0,0,1-.03-0.27v-9.43c0-5.36,2.96-8.2,8.56-8.2,5.7,0,8.59,2.76,8.59,8.2v9.43a0.842,0.842,0,0,1-.04.27,10.765,10.765,0,0,1-2.94,4.78v1.3c0.54,1.1,4.16,3.68,10.97,6.31a2.344,2.344,0,0,1,1.5,2.19v0.97A2.337,2.337,0,0,1,1571.45,4193Zm-22.33-18.32a9.076,9.076,0,0,0,2.51,4.09,0.984,0.984,0,0,1,.29.7v1.9a1.047,1.047,0,0,1-.05.3c-0.81,2.61-6.91,5.77-11.89,7.69a0.348,0.348,0,0,0-.22.32v0.97a0.346,0.346,0,0,0,.34.35h31.35a0.346,0.346,0,0,0,.34-0.35v-0.97a0.339,0.339,0,0,0-.21-0.32c-1.87-.72-11.2-4.45-12.21-7.69a1.032,1.032,0,0,1-.04-0.3v-1.9a1.017,1.017,0,0,1,.28-0.7,9.311,9.311,0,0,0,2.69-4.09v-9.28c0-4.29-2.04-6.2-6.6-6.2-4.49,0-6.58,1.97-6.58,6.2v9.28Zm8.29,6.1a1,1,0,0,1-.01-2c5.88-.11,7.58-1.13,7.58-4.56a0.99,0.99,0,1,1,1.98,0c0,5.89-4.7,6.47-9.53,6.56h-0.02Zm-9.28-5.29h-1.7a2.913,2.913,0,0,1-2.91-2.91v-5.79a2.919,2.919,0,0,1,2.91-2.91h1.71a1,1,0,0,1,0,2h-1.71a0.915,0.915,0,0,0-.92.91v5.79a0.915,0.915,0,0,0,.92.91h1.7A1,1,0,0,1,1548.13,4175.49Zm16.87,0h-1.7a1,1,0,0,1,0-2h1.7a0.922,0.922,0,0,0,.92-0.91v-5.79a0.922,0.922,0,0,0-.92-0.91h-1.7a1,1,0,0,1,0-2h1.7a2.911,2.911,0,0,1,2.9,2.91v5.79A2.9,2.9,0,0,1,1565,4175.49Zm-0.08-9.61a1,1,0,0,1-1-1v-2.7a8.22,8.22,0,0,0-16.44,0v2.7a1,1,0,1,1-1.99,0v-2.7a10.21,10.21,0,0,1,20.42,0v2.7A0.988,0.988,0,0,1,1564.92,4165.88Zm-8.9,16.29a2.4,2.4,0,1,1,2.39-2.39A2.4,2.4,0,0,1,1556.02,4182.17Zm0-2.79a0.4,0.4,0,1,0,0,.79A0.4,0.4,0,1,0,1556.02,4179.38Z" transform="translate(-1537.78 -4152)"/>
</svg>
