<svg xmlns="http://www.w3.org/2000/svg" width="39" height="40" viewBox="0 0 39 40">
  <defs>
    <style>
      .cls-1 {
        fill: #f63954;
        fill-rule: evenodd;
      }
    </style>
  </defs>
  <path id="daily-updates" class="cls-1" d="M1232,4171v16a1,1,0,0,1-1,1h-4a1,1,0,0,1,0-2h3v-14h-7a1,1,0,0,1,0-2h8A1,1,0,0,1,1232,4171Zm-28,0a1,1,0,0,0-1-1h-8v-13h2a1,1,0,0,0,0-2h-3a1,1,0,0,0-1,1v15a1,1,0,0,0,1,1h9A1,1,0,0,0,1204,4171Zm-4-14v-2a3.009,3.009,0,0,1,3-3h20a3.009,3.009,0,0,1,3,3v2a3.009,3.009,0,0,1-3,3h-20A3.009,3.009,0,0,1,1200,4157Zm2,0a1,1,0,0,0,1,1h20a1,1,0,0,0,1-1v-2a1,1,0,0,0-1-1h-20a1,1,0,0,0-1,1v2Zm11,7a7,7,0,1,1-7,7A7.008,7.008,0,0,1,1213,4164Zm0,2a5,5,0,1,0,5,5A5,5,0,0,0,1213,4166Zm11,21a1,1,0,0,1-.63.93l-10,4a1.013,1.013,0,0,1-.74,0l-10-4a1,1,0,0,1,0-1.86l10-4a1.048,1.048,0,0,1,.74,0l10,4A1,1,0,0,1,1224,4187Zm-3.69,0-7.31-2.92-7.31,2.92,7.31,2.92Z" transform="translate(-1193 -4152)"/>
</svg>
