<svg xmlns="http://www.w3.org/2000/svg" width="40" height="40" viewBox="0 0 40 40">
  <defs>
    <style>
      .cls-1 {
        fill: #f63954;
        fill-rule: evenodd;
      }
    </style>
  </defs>
  <path id="dedicated-team" class="cls-1" d="M885,4170a11,11,0,1,0,11,11A11.009,11.009,0,0,0,885,4170Zm0,20a9,9,0,1,1,9-9A9.012,9.012,0,0,1,885,4190Zm-11-19h-5a1,1,0,1,1,0-2h4v-4a1,1,0,0,1,2,0v5A1,1,0,0,1,874,4171Zm-3,9a12.988,12.988,0,0,1-11.385-19.26,3.886,3.886,0,0,0,3.472-.34,0.994,0.994,0,0,0,.206.31l6,6a1,1,0,0,0,1.414-1.42l-6-6a1.021,1.021,0,0,0-.311-0.2,3.964,3.964,0,0,0,.6-2.09,4.012,4.012,0,0,0-.261-1.39A12.995,12.995,0,0,1,884,4167a1,1,0,0,0,2,0,14.971,14.971,0,0,0-22.412-13.02,3.977,3.977,0,0,0-5.612,5.61A14.975,14.975,0,0,0,871,4182,1,1,0,0,0,871,4180Zm-10-25a2,2,0,1,1-2,2A2,2,0,0,1,861,4155Z" transform="translate(-856 -4152)"/>
</svg>
