<svg xmlns="http://www.w3.org/2000/svg" width="36.03" height="40" viewBox="0 0 36.03 40">
  <defs>
    <style>
      .cls-1 {
        fill: #f63954;
        fill-rule: evenodd;
      }
    </style>
  </defs>
  <path id="flexible-contract" class="cls-1" d="M1877.89,4162.69l-13.11,13.11a1,1,0,0,1-1.42-1.41l13.12-13.11A1,1,0,0,1,1877.89,4162.69Zm1.42,1.42-13.12,13.11a1.008,1.008,0,0,0,0,1.42,1.042,1.042,0,0,0,.71.29,1.024,1.024,0,0,0,.71-0.29l13.11-13.12A1,1,0,0,0,1879.31,4164.11Zm4.81,3.68-15.38,15.38a1.148,1.148,0,0,1-.48.27l-11.04,2.54a0.908,0.908,0,0,1-.23.03,1.017,1.017,0,0,1-.71-0.3,0.99,0.99,0,0,1-.26-0.93l2.54-11.04a1,1,0,0,1,.27-0.48l15.38-15.38a3.081,3.081,0,0,1,4.26-.01l5.66,5.66A3.015,3.015,0,0,1,1884.12,4167.79Zm-1.4-2.84-5.67-5.67a1.03,1.03,0,0,0-1.43.02l-15.17,15.17-2.12,9.2,9.2-2.12,15.17-15.17A1.011,1.011,0,0,0,1882.72,4164.95ZM1878,4177a1,1,0,0,0-1,1v12a1,1,0,0,1-1,1h-24a1,1,0,0,1-1-1v-34a1,1,0,0,1,1-1h21a1,1,0,0,0,0-2h-21a3.009,3.009,0,0,0-3,3v34a3.009,3.009,0,0,0,3,3h24a3.009,3.009,0,0,0,3-3v-12A1,1,0,0,0,1878,4177Z" transform="translate(-1849 -4153)"/>
</svg>
