<svg xmlns="http://www.w3.org/2000/svg" width="19" height="16" viewBox="0 0 19 16">
  <defs>
    <style>
      .twitter-logo {
        fill: #b8b7bc;
        fill-rule: evenodd;
      }
    </style>
  </defs>
  <path id="twitter-logo" data-name="Twitter logo" class="twitter-logo" d="M954.014,2414.89a7.723,7.723,0,0,1-2.242.64,4.021,4.021,0,0,0,1.716-2.24,7.472,7.472,0,0,1-2.478.98,3.848,3.848,0,0,0-2.847-1.27,3.974,3.974,0,0,0-3.9,4.04,4.224,4.224,0,0,0,.1.92,10.971,10.971,0,0,1-8.041-4.22,4.146,4.146,0,0,0-.528,2.03,4.07,4.07,0,0,0,1.735,3.36,3.8,3.8,0,0,1-1.767-.5v0.05a4.012,4.012,0,0,0,3.13,3.96,3.877,3.877,0,0,1-1.028.14,4.4,4.4,0,0,1-.734-0.07,3.922,3.922,0,0,0,3.644,2.8,7.619,7.619,0,0,1-4.845,1.73c-0.315,0-.626-0.02-0.931-0.05a10.817,10.817,0,0,0,5.982,1.81c7.174,0,11.1-6.15,11.1-11.49,0-.18,0-0.35-0.012-0.53A8.085,8.085,0,0,0,954.014,2414.89Z" transform="translate(-935 -2413)"/>
</svg>
