<svg xmlns="http://www.w3.org/2000/svg" width="20" height="20" viewBox="0 0 20 20">
  <defs>
    <style>
      .cls-1 {
        fill: #b8b7bc;
        fill-rule: evenodd;
      }
    </style>
  </defs>
  <path class="cls-1" d="M615,2437a10,10,0,1,0,10,10A10.029,10.029,0,0,0,615,2437Zm-8,10a10.754,10.754,0,0,1,0-2c0.154,0.81.652,2,1,2a6.652,6.652,0,0,1,1.75.63c0.25,0.12.125,0.37,0,.62A2.067,2.067,0,0,0,610,2451a1.858,1.858,0,0,1,1,1.37c0,0.88-.375.75,0,1.63C608.25,2451.63,607,2450.63,607,2447Zm8,8c-0.875,0-1.5.03-2,0-0.125-.25-0.75-0.12-0.625-0.38A18.162,18.162,0,0,1,614,2452a1.555,1.555,0,0,0,.5-1,2.376,2.376,0,0,1,.251-0.88c0.374-.62.249-1-0.251-1.12-1-.25-1.5-1.12-2.25-1.5-1.448-.72-2.145-0.92-3.25-1.5,0.333,0-1-.08-1-0.75a1,1,0,0,1,.5-0.5,0.921,0.921,0,0,1,1.25.5A4.872,4.872,0,0,1,612,2443s0.887-.94,1-1a3.025,3.025,0,0,1,1,0,1.321,1.321,0,0,0-1.125-1.25,0.124,0.124,0,0,1,.125-0.13c0.375-.12.875-0.37,0.75-0.74-0.313-.48-0.187-0.79.25-0.88,1.476,0.2.946,4.05,2,2a3.213,3.213,0,0,1,1-1,2.8,2.8,0,0,1,1,0,3.726,3.726,0,0,1,2,1c-0.084.05-.917,0.9-1,1,0,0-.32.04,0,1-0.75.12-1.125,0.12-.813,0.79a1.712,1.712,0,0,1-.187.46,3.729,3.729,0,0,0-1,2.12,1.508,1.508,0,0,0,1.625,1.63c1.125-.12,1.125-0.12,1.5.87,0,0.13.125,0.25,0.125,0.38a0.827,0.827,0,0,1,.125.75,2.907,2.907,0,0,0,.5,2.5,2.961,2.961,0,0,0,.125.5C618.125,2454.38,617.5,2455,615,2455Z" transform="translate(-605 -2437)"/>
</svg>
